# xmcd
#
# Track frame offsets:
#	193
#	14328
#	39628
#	46140
#	56005
#	76788
#	89953
#	101920
#	112673
#	121473
#	136405
#	156365
#	181758
#	205270
#	224433
#	256648
#	268555
#	284453
#	304663
#	323405
#
# Disc length: 4461 seconds
#
# Revision: 1
# Processed by: cddbd v1.5.2PL0 Copyright (c) Steve Scherf et al.
# Submitted via: EasyCDDAExtractor 10.2.0.1
#
DISCID=16116b14
DTITLE=SAVAGE ROSE - Best Of Yesteryear
DYEAR=1991
DGENRE=Blues
TTITLE0=Your Sign, My Sign
TTITLE1=Open Air Shop
TTITLE2=You Be Free
TTITLE3=Oh Baby Where Have You Gone
TTITLE4=A Girl I Knew
TTITLE5=Everybody Must Know
TTITLE6=Savage Rose
TTITLE7=White Swan's Marriage Clother
TTITLE8=Sleep
TTITLE9=You'll Be Alright
TTITLE10=I'm Walking Through The Door
TTITLE11=Ride My Mountain
TTITLE12=The Sherpherd And Sally
TTITLE13=His Own Happiness, God's Little Hand
TTITLE14=A Trail In Your Native Town
TTITLE15=I'm Satisfield Mr. Captain
TTITLE16=Look Out
TTITLE17=Sailing Away
TTITLE18=The Castle
TTITLE19=Life's Other Side
EXTD=YEAR: 1991
EXTT0=
EXTT1=
EXTT2=
EXTT3=
EXTT4=
EXTT5=
EXTT6=
EXTT7=
EXTT8=
EXTT9=
EXTT10=
EXTT11=
EXTT12=
EXTT13=
EXTT14=
EXTT15=
EXTT16=
EXTT17=
EXTT18=
EXTT19=
PLAYORDER=
